<?xml version="1.0" standalone="no"?>
<!DOCTYPE svg PUBLIC "-//W3C//DTD SVG 20010904//EN"
 "http://www.w3.org/TR/2001/REC-SVG-20010904/DTD/svg10.dtd">
<svg version="1.0" xmlns="http://www.w3.org/2000/svg"
 width="500.000000pt" height="500.000000pt" viewBox="0 0 500.000000 500.000000"
 preserveAspectRatio="xMidYMid meet">

<g transform="translate(0.000000,500.000000) scale(0.100000,-0.100000)"
fill="#000000" stroke="none">
<path d="M1947 2900 l-168 -239 3 -320 3 -321 -47 0 -48 0 0 -290 0 -290 1055
0 1055 0 0 290 0 290 -75 0 -75 0 0 316 0 316 -172 243 c-94 134 -175 242
-180 239 -4 -3 -31 -38 -59 -79 l-52 -74 -215 3 -216 4 -23 47 c-19 36 -22 50
-12 61 16 19 4 44 -22 44 -28 0 -131 -30 -146 -42 -20 -16 -15 -45 7 -51 15
-4 20 -14 20 -36 l0 -31 -120 0 -119 0 56 -80 57 -80 76 0 76 0 17 -64 c9 -36
20 -72 23 -80 5 -13 -2 -16 -35 -16 l-41 0 0 -320 0 -320 -55 0 -55 0 0 323 0
322 -168 237 c-92 131 -169 237 -172 237 -3 0 -80 -108 -173 -239z m1117 -92
c-4 -7 -30 -43 -57 -80 l-49 -68 -95 0 c-75 0 -94 3 -90 13 3 8 8 44 12 80 l7
67 140 0 c109 0 138 -3 132 -12z m716 -1138 l0 -210 -1035 0 -1035 0 0 210 0
210 1035 0 1035 0 0 -210z"/>
<path d="M1812 1757 c-117 -66 -73 -289 46 -233 38 18 62 60 44 78 -8 8 -17 3
-35 -17 -35 -41 -57 -29 -57 32 0 56 18 96 44 101 15 3 17 -1 11 -27 -6 -29
-5 -31 24 -31 29 0 31 2 31 39 0 21 -6 43 -12 49 -23 17 -72 22 -96 9z m-29
-72 c-3 -9 -8 -14 -10 -11 -3 3 -2 9 2 15 9 16 15 13 8 -4z"/>
<path d="M1986 1708 c-3 -35 -8 -94 -11 -131 l-6 -68 33 3 c32 3 33 5 38 53 4
42 8 50 28 53 20 3 22 0 22 -47 0 -50 1 -51 30 -51 29 0 30 2 30 43 0 23 3 79
7 125 l6 82 -32 0 c-31 0 -31 -1 -31 -50 0 -49 -1 -50 -30 -50 -28 0 -30 2
-30 40 0 31 -4 40 -17 41 -15 0 -15 2 2 9 18 8 17 9 -7 9 -25 1 -27 -2 -32
-61z m104 -58 c0 -5 -2 -10 -4 -10 -3 0 -8 5 -11 10 -3 6 -1 10 4 10 6 0 11
-4 11 -10z"/>
<path d="M2258 1751 c-28 -22 -48 -80 -48 -139 0 -55 47 -107 88 -98 27 7 72
48 72 68 0 5 -6 8 -14 5 -8 -3 -17 -1 -20 6 -3 8 -10 6 -20 -7 -9 -11 -21 -16
-32 -12 -13 5 -16 17 -12 66 3 37 11 67 20 76 15 15 17 14 29 -7 16 -31 20
-79 6 -79 -8 0 -8 -3 -1 -10 14 -14 54 -21 54 -9 0 5 -4 9 -10 9 -5 0 -10 7
-10 16 0 8 5 12 10 9 17 -10 11 68 -6 93 -9 14 -22 21 -31 18 -8 -3 -11 -1 -8
4 11 18 -42 10 -67 -9z"/>
<path d="M2493 1762 l-42 -3 -5 -52 c-3 -29 -7 -82 -10 -119 l-5 -68 29 0 c27
0 30 3 30 34 0 19 4 38 10 41 8 5 43 -40 53 -70 2 -6 14 -4 30 4 l27 14 -20
34 c-19 33 -19 33 0 66 35 57 21 110 -30 119 -14 2 -44 2 -67 0z m57 -73 c0
-19 -44 -48 -56 -36 -12 11 6 56 24 60 24 5 32 -1 32 -24z"/>
<path d="M2738 1763 c-67 -5 -66 -3 -69 -148 -2 -88 0 -100 16 -103 9 -2 15 0
12 5 -3 4 26 7 64 5 l69 -4 0 33 0 32 -50 -6 c-48 -6 -51 -5 -60 19 -13 33
-13 44 1 44 6 0 8 -7 5 -16 -5 -13 -2 -15 16 -10 13 3 33 6 46 6 19 0 23 5 20
23 -2 18 -10 23 -41 25 -30 3 -37 7 -35 20 2 12 17 18 53 22 46 5 50 7 53 33
3 23 0 27 -20 25 -13 -1 -48 -3 -80 -5z"/>
<path d="M2970 1763 c-66 -10 -70 -12 -70 -44 0 -24 3 -30 16 -25 9 3 21 6 27
6 7 0 6 4 -3 10 -13 8 -13 10 1 10 31 0 27 -27 -12 -86 -21 -33 -39 -69 -39
-82 0 -38 51 -48 133 -26 11 4 17 15 17 35 0 16 -1 29 -3 29 -1 0 -17 -4 -35
-9 -42 -12 -41 -3 7 67 51 76 57 98 32 111 -20 11 -26 11 -71 4z"/>
<path d="M3150 1750 c-12 -12 -25 -32 -30 -46 -13 -33 -13 -144 0 -144 6 0 9
-5 8 -12 -2 -6 10 -18 25 -26 38 -18 82 -1 103 41 15 28 15 30 -3 25 -17 -5
-18 -2 -9 28 8 25 14 30 23 22 17 -14 18 35 2 81 -19 53 -81 69 -119 31z m66
-31 c13 -22 10 -114 -6 -131 -33 -39 -56 -8 -44 59 13 74 32 101 50 72z"/>
<path d="M3629 1763 l-56 -4 -7 -76 c-3 -42 -6 -98 -6 -124 l0 -48 73 5 c93 7
99 9 95 36 -3 21 -8 23 -55 21 -36 -2 -53 2 -53 10 0 7 -3 23 -7 36 -4 17 -3
22 6 17 6 -4 9 -12 5 -17 -3 -6 11 -7 38 -3 52 8 48 5 41 33 -5 20 -11 22 -44
19 -31 -3 -39 0 -39 13 0 21 20 29 71 29 37 0 39 2 39 30 0 25 -4 30 -22 28
-13 -1 -48 -3 -79 -5z"/>
<path d="M3337 1678 c-4 -46 -7 -102 -7 -126 0 -41 1 -43 28 -40 26 3 27 5 32
73 l5 70 26 -70 c23 -61 29 -70 49 -67 13 1 25 3 26 5 1 1 5 55 9 120 l7 117
-26 0 c-23 0 -26 -4 -27 -32 -1 -65 -13 -72 -32 -18 -17 46 -20 50 -51 50
l-33 0 -6 -82z"/>
</g>
</svg>
